<?xml version="1.0" encoding="UTF-8"?> <svg xmlns="http://www.w3.org/2000/svg" id="Layer_1" version="1.1" viewBox="0 0 475.8 172.6" width="476" height="173"><defs><linearGradient id="linear-gradient" x1="542.7" x2="695.6" y1="213.3" y2="213.3" gradientTransform="rotate(153.8 -233.9043 238.676)scale(-1.1 1)" gradientUnits="userSpaceOnUse"><stop offset="0" stop-color="#03196b" stop-opacity="0"></stop><stop offset=".4" stop-color="#03196b" stop-opacity=".5"></stop><stop offset=".8" stop-color="#03196b"></stop></linearGradient><style>.st2{fill:#03196b}</style></defs><path d="M106.7 5.2 64.3 75 21.8 5.2H0l47.6 78 16.7 27.7L128.5 5.2zm228.4 20.1c-3.9-2.1-8.1-3.1-12.5-3.1-9.4 0-17.7 3.6-24.9 10.7-7.2 7.2-10.8 15.9-10.8 26V114h-18.2V58.9c0-15.3 5.4-28.2 16.1-38.9 10.7-10.8 23.3-16.1 37.8-16.1s13.6 1.5 19.9 4.6 11.6 7.5 16.1 13.3l-13.4 12.4c-2.8-3.8-6.2-6.8-10.2-8.8h.1ZM459.6 20c10.8 10.8 16.2 24 16.1 39.4V114h-18.4v-14c-10.5 9.4-22.7 14-36.7 14s-28.2-5.4-38.9-16.1c-10.8-10.8-16.1-23.7-16.1-38.9s5.4-28.2 16.1-38.9C392.5 9.3 405.4 4 420.6 4s28.2 5.4 38.9 16.1h.1Zm-38.9 2.2c-10.2 0-18.8 3.6-26 10.7-7.2 7.2-10.7 15.8-10.7 26s3.6 18.8 10.7 26c7.2 7.2 15.8 10.7 26 10.7s18.8-3.6 26-10.7c7.2-7.2 10.7-15.9 10.7-26s-3.6-18.8-10.7-26c-7.2-7.2-15.9-10.7-26-10.7" class="st2"></path><path fill="url(#linear-gradient)" d="M249.3 38.8 99.7 112.2l-7.5-15.3 142.6-70.1z"></path><path d="M211.7 90.1c-18.5 8.2-40.4.4-49.4-17.9-9.2-18.8-1.5-41.6 17.3-50.8s41.6-1.5 50.8 17.3c1.3 2.6 2.2 5.2 2.8 7.9l15.9-7.8c-.8-2.6-1.8-5.2-3.1-7.8-13.5-27.5-46.8-38.8-74.3-25.3S132.9 52.5 146.4 80c13.3 27 45.6 38.4 72.9 25.9l-7.7-15.7h.1Z" class="st2"></path><path fill="#0068ff" d="M187 165c-1.5 1.1-2.9 1.5-4.4 1.5-3.8 0-6.3-2.2-6.3-6.5v-10.6h-4.1v-2.5h4.1v-6.1h3v6.1h6.8v2.5h-6.8v10.5c0 2.5 1.4 3.9 3.5 3.9s2.3-.5 3.3-1.2l1 2.4zm24.7-10.4V166h-2.9v-10.9c0-3.6-2.1-6-5.3-6s-6.6 2.7-6.6 7.7v9.2H194v-27.9h2.9v12c1.5-2.3 4-3.6 7.2-3.6 4.6 0 7.7 3.3 7.7 8.1zm27 2.5h-16.4c.3 4.3 3.5 6.9 6.8 6.9s5.1-1 6.5-4.1l2.6.6c-1.5 4-4.8 6.1-9.1 6.1s-9.7-3.9-9.7-10 4.6-10.1 9.9-10.1 9.2 3.8 9.4 9.5zm-16.3-2.2h13.3c-.5-3.8-3.2-5.8-6.4-5.8s-6.3 2.1-6.9 5.8m36.4-8-.2 2.8h-1.1c-5.1 0-7.7 3.8-7.7 9v7.4h-3V147h3v4.7c1.5-2.8 4.1-4.9 7.7-4.9s.8 0 1.4.2Zm24.7 19.1h-2.9v-3c-1.7 2.2-4.4 3.5-7.6 3.5-5.1 0-9.5-4-9.5-10s4.5-10 9.5-10 5.9 1.3 7.6 3.5v-3.1h2.9zm-2.9-9.5c0-4.6-3.5-7.4-7.1-7.4s-7.1 2.9-7.1 7.4 3.2 7.4 7.1 7.4 7.1-2.9 7.1-7.4m32.9 0c0 6-4.5 10-9.5 10s-5.9-1.3-7.6-3.5v9.6h-2.9v-25.7h2.9v3.1c1.7-2.2 4.4-3.5 7.6-3.5 5.1 0 9.5 4 9.5 10m-2.9 0c0-4.6-3.2-7.4-7.1-7.4s-7.1 2.9-7.1 7.4 3.5 7.4 7.1 7.4 7.1-2.9 7.1-7.4m28.6.6h-16.4c.3 4.3 3.5 6.9 6.8 6.9s5.1-1 6.5-4.1l2.6.6c-1.5 4-4.8 6.1-9.1 6.1s-9.7-3.9-9.7-10 4.6-10.1 9.9-10.1 9.2 3.8 9.4 9.5zm-16.3-2.2h13.3c-.5-3.8-3.2-5.8-6.4-5.8s-6.3 2.1-6.9 5.8m41.8 11.1h-3v-3.1c-1.5 2.3-4 3.6-7.2 3.6-4.6 0-7.7-3.3-7.7-8.1V147h3v10.9c0 3.6 2.1 5.9 5.3 5.9s6.6-2.7 6.6-7.6V147h3zm21.4-1c-1.5 1.1-2.9 1.5-4.4 1.5-3.8 0-6.3-2.2-6.3-6.5v-10.6h-4.1v-2.5h4.1v-6.1h3v6.1h6.8v2.5h-6.8v10.5c0 2.5 1.4 3.9 3.5 3.9s2.3-.5 3.3-1.2l1 2.4zm10.7-23.8c0 1.1-.9 2-2.1 2s-2-.9-2-2 .9-2 2-2 2.1.9 2.1 2m-3.5 24.8v-19.1h3V166zm27.7-6.5 2.7.7c-1 3.9-4.8 6.3-9 6.3s-9.9-3.9-9.9-10 4.6-10 9.9-10 7.9 2.4 9.1 6.3l-2.8.9c-.9-2.9-3.4-4.5-6.2-4.5s-7.1 2.9-7.1 7.3 3.2 7.3 7.1 7.3 5.4-1.4 6.3-4.3zm12.2.7c.3 2.5 2.6 3.9 5.6 3.9s4.6-1.3 4.6-3.3-1.2-2.3-3.1-2.7l-4.4-1c-3.2-.7-5-2.2-5-4.9s2.9-5.8 7.2-5.8 7.1 2.2 7.8 5.3l-2.8.6c-.4-2.1-2.2-3.5-5-3.5s-4.2 1.3-4.2 3.1 1 2.2 2.9 2.6l4.6 1c2.8.6 4.9 2.1 4.9 5s-3.1 5.9-7.7 5.9-7.9-1.9-8.3-5.7l2.9-.7zm31.2-15c0 4.1-3.2 7.1-7.1 7.1s-7.1-3-7.1-7.1 3.2-7.1 7.1-7.1 7.1 3 7.1 7.1m-.8 0c0-3.7-2.8-6.4-6.2-6.4s-6.2 2.6-6.2 6.4 2.8 6.2 6.2 6.2 6.2-2.6 6.2-6.2m-5.4.7 2.5 2.5h-1l-2.5-2.4h-1.6v2.4h-.8v-6.8h2.9c1.6 0 2.6.8 2.6 2.2s-.8 2-2.2 2.2h.1Zm-.4-.6c1.1 0 1.8-.6 1.8-1.5s-.7-1.4-1.8-1.4h-2.1v2.9z"></path></svg> 